PathFileType	4	(X/Y/Z)	D:\TRACE\v60_Jaco2_6-2-23\JustArmDRS_Motion1_2-v60.trc
DataRate	CameraRate	NumFrames	NumMarkers	Units	OrigDataRate	OrigDataStartFrame	OrigNumFrames
100.00	100.00	      24	9	mm	100.00	1703	      6808
Frame#	Time	front left toe			Front right toe			aft left toe			aft right toe			Arm			FL body			FR body			AL Body			AR Body			
		X1	Y1	Z1	X2	Y2	Z2	X3	Y3	Z3	X4	Y4	Z4	X5	Y5	Z5	X6	Y6	Z6	X7	Y7	Z7	X8	Y8	Z8	X9	Y9	Z9	

1703	17.020	-250.37776	12.85792	-171.47215	157.54442	9.43237	-215.73178	-184.30363	31.62104	433.70319	218.48727	33.82861	421.84970	-64.43324	1198.98706	-532.57483	-137.18384	572.80780	-324.63217	22.17685	573.02191	-341.45944	-37.62234	600.10071	615.13062	119.34810	595.03528	599.95325	
1704	17.030	-250.54895	12.74772	-171.40817	157.18127	9.36915	-215.76845	-184.56021	31.67013	433.66653	218.37573	34.04592	421.94385	-65.51949	1198.62366	-532.71179	-137.45778	572.44690	-324.22589	22.05453	572.99701	-341.71301	-38.36754	600.08252	615.14728	117.61990	594.54333	600.17365	
1705	17.040	-250.87979	12.76288	-171.42708	156.90773	9.34786	-215.78677	-184.89461	31.77710	433.68289	218.32843	34.17733	422.04572	-66.64607	1198.54077	-532.59930	-138.51372	572.57733	-324.41278	21.26161	572.92181	-341.60471	-39.35095	600.15582	615.14417	116.96085	594.92499	600.23907	
1706	17.050	-251.04640	12.75026	-171.45125	156.67010	9.33414	-215.84378	-185.14108	31.88044	433.57401	218.29805	34.30294	422.10550	-67.83670	1198.50964	-532.91589	-139.01117	572.35345	-324.36618	20.63161	572.83136	-341.66989	-39.89176	600.27887	615.08075	116.13174	595.12701	600.29517	
1707	17.060	-251.11732	12.64668	-171.47600	156.60846	9.36295	-215.83026	-185.25255	31.83249	433.53839	218.21198	34.40735	422.06793	-68.60583	1198.42688	-532.88324	-139.57344	572.17212	-324.41125	19.48177	572.63336	-341.53455	-40.52711	600.23798	614.66644	116.49994	595.59412	599.98267	
1708	17.070	-251.28586	12.59178	-171.47624	156.38042	9.26373	-215.92120	-185.31093	31.81430	433.50333	218.00415	34.42741	421.99930	-69.67825	1198.24426	-532.95538	-140.16016	571.93951	-324.50797	19.16405	572.53375	-341.51352	-41.36580	600.36407	614.66736	116.64128	595.78760	599.95288	
1709	17.080	-251.40524	12.50174	-171.41544	156.32692	9.26583	-215.93149	-185.37044	31.78145	433.50232	217.80029	34.47423	421.92072	-70.47575	1198.15247	-532.83466	-140.31682	571.52673	-324.18127	18.64704	572.51184	-341.38123	-41.91712	600.44073	614.69983	115.82357	595.97424	599.94476	
1710	17.090	-251.39539	12.41669	-171.40907	156.30782	9.26894	-215.93596	-185.41364	31.71884	433.52881	217.71982	34.51926	421.88348	-71.45153	1198.01221	-533.17017	-141.36948	571.30212	-324.44583	18.81712	572.47784	-341.74359	-42.19226	600.46918	614.70044	114.93616	596.26868	599.71674	
1711	17.100	-251.45320	12.31898	-171.40041	156.19148	9.24300	-215.96992	-185.51352	31.72517	433.52155	217.64861	34.63889	421.82706	-72.55002	1197.76917	-533.32983	-141.68742	571.13080	-324.46832	18.20767	572.40289	-341.68701	-42.78016	600.61884	615.19452	113.84396	596.13324	599.91949	
1712	17.110	-251.46857	12.24148	-171.41740	156.21510	9.27060	-215.97171	-185.63419	31.81981	433.49393	217.62280	34.77740	421.76212	-73.24844	1197.23853	-533.36890	-142.26111	570.92322	-324.47894	17.61967	572.33380	-341.66766	-43.17293	600.70935	615.17535	113.63253	596.34003	599.95355	
1713	17.120	-251.45892	12.14345	-171.39717	156.12924	9.24218	-215.98578	-185.79214	31.92305	433.41837	217.58348	34.88817	421.71567	-74.62996	1197.03601	-533.63660	-142.35516	570.85071	-324.51724	17.17709	572.15851	-341.59207	-43.66977	600.81989	615.20422	113.14045	596.53491	599.97205	
1714	17.130	-251.50870	12.09837	-171.36232	156.14531	9.26483	-215.98045	-185.78465	31.95855	433.36285	217.43248	34.90875	421.67642	-75.57715	1196.76807	-533.91046	-142.69363	570.71234	-324.44919	16.33242	571.93250	-341.27612	-43.96589	600.93817	615.20599	112.68298	596.74689	599.99542	
1715	17.140	-251.60469	12.07118	-171.41678	156.16437	9.28999	-215.95392	-186.02182	32.12695	433.35355	217.42480	34.97276	421.62881	-76.29330	1196.52722	-534.00122	-143.33319	570.51691	-324.36765	15.96933	571.80566	-341.22586	-44.18264	601.02325	615.20728	112.20724	596.92554	600.02417	
1716	17.150	-251.58218	12.03523	-171.40546	156.10330	9.26273	-215.97473	-186.16539	32.16330	433.34940	217.30144	34.98600	421.60886	-77.04590	1196.27368	-534.26794	-143.57832	570.27332	-324.31799	15.64403	571.67932	-341.12363	-44.69201	601.21295	615.20483	111.89880	597.30579	600.00153	
1717	17.160	-251.63820	12.09014	-171.39876	156.07422	9.24668	-215.99852	-186.29417	32.33960	433.26553	217.37062	35.02934	421.62387	-77.57076	1196.04810	-534.47119	-143.72469	569.94562	-324.31116	15.45970	571.55176	-341.06119	-45.09149	601.38135	615.19360	111.58698	597.70538	599.87354	
1718	17.170	-251.59375	11.99322	-171.40198	156.10381	9.27526	-215.96776	-186.27347	32.36859	433.26364	217.32539	35.03054	421.61728	-77.95605	1196.09851	-534.53442	-144.06007	569.78656	-324.40994	15.05290	571.36609	-341.09799	-45.56164	601.57452	615.15277	111.52620	597.82281	600.02686	
1719	17.180	-251.60570	11.98291	-171.39832	156.05324	9.26760	-216.00366	-186.20403	32.35175	433.21814	217.42073	35.06145	421.63406	-78.46391	1195.97656	-534.65283	-144.40538	569.59790	-324.41821	14.87773	571.26532	-341.12744	-45.80935	601.72095	615.12213	111.32516	598.04602	600.04633	
1720	17.190	-251.49521	11.84232	-171.37622	156.18591	9.27774	-215.99728	-186.27020	32.37337	433.19125	217.51184	35.10439	421.63120	-79.01446	1195.79517	-534.79004	-144.51077	569.45203	-324.38272	15.25069	571.33435	-341.55035	-46.13988	601.85693	615.09149	110.19985	597.87775	600.36884	
1721	17.200	-251.34492	11.70566	-171.38322	156.30513	9.32758	-215.97096	-186.22089	32.50482	433.20749	217.60713	35.13802	421.64655	-79.50729	1195.62122	-535.01111	-144.57945	569.32343	-324.34616	14.92120	571.21771	-341.51764	-46.44820	602.01013	615.09637	109.79332	598.11768	600.39020	
1722	17.210	-251.07214	11.60538	-171.39601	156.46065	9.34322	-215.99673	-186.00572	32.60630	433.21167	217.61473	35.37316	421.64258	-79.96836	1195.38855	-535.17334	-144.78433	569.13037	-324.37048	14.83858	571.12238	-341.41486	-46.60451	602.09766	615.09430	109.49249	598.29852	600.39276	
1723	17.220	-250.77382	11.55822	-171.45592	156.84171	9.49370	-215.91426	-184.61479	31.74863	433.45581	217.84557	35.49300	421.63766	-80.51807	1194.95972	-535.46918	-144.91412	568.99158	-324.34689	14.73530	571.09265	-341.41547	-46.75969	602.18689	615.08905	109.24570	598.49719	600.34796	
1724	17.230	-250.47615	11.56491	-171.42818	157.26703	9.54227	-215.88397	-184.46832	31.68501	433.43976	218.06097	35.59908	421.52939	-80.86835	1194.71252	-535.58173	-144.66966	568.46332	-324.05896	14.68799	571.03302	-341.39819	-46.60784	602.25708	614.75806	108.93584	598.42108	600.23682	
1725	17.240	-250.25349	11.48218	-171.38876	157.57591	9.55100	-215.87869	-184.13438	31.58257	433.41486	218.30501	35.68608	421.55450	-81.55085	1194.49292	-535.73755	-145.35812	568.53601	-324.36533	15.08657	571.01044	-341.48874	-46.65649	602.34290	614.73157	108.93118	598.71198	600.28192	
1726	17.250	-249.97038	11.43432	-171.36176	157.82817	9.60983	-215.84807	-183.97791	31.54047	433.37592	218.48621	35.70750	421.52969	-81.97578	1194.08679	-535.88312	-145.36667	568.31512	-324.36957	15.10779	570.95142	-341.49799	-46.80313	602.51324	614.74786	108.85813	598.93225	600.30536	
